<?xml version="1.0" encoding="UTF-8"?><svg id="Calque_2" xmlns="http://www.w3.org/2000/svg" viewBox="0 0 494.5 122.14"><g id="Calque_1-2"><g><path d="M134.1,120.57c0,.52-.06,1.04-.09,1.56h-48.86v-28.68c-.82,.25-1.42,.41-2.01,.61-5.87,1.97-11.76,3.89-17.6,5.95-2.66,.94-5.4,1.86-7.78,3.32-4.71,2.9-7.03,9.71-2.61,15.3,.97,1.22,2.08,2.33,3.13,3.5H10.12c-.73-.45-1.47-.9-2.2-1.35C1.79,117.05-.7,111.13,.17,104c1.36-11.16,7.78-18.17,17.61-22.61,8.05-3.63,16.59-5.59,25.25-6.97,9.68-1.54,19.41-2.76,29.09-4.26,2.73-.43,5.46-1.15,8.05-2.1,5.59-2.06,6.91-8.5,2.78-12.86-1.93-2.04-4.4-3.03-7.05-3.54-4.61-.9-9.23-.95-13.81,.24-6.03,1.55-9.18,5.14-9.96,11.42H5.37c.42-2.28,.65-4.51,1.24-6.63,3.55-12.77,11.82-21.62,23.38-27.62,7.87-4.08,16.33-6.23,25.07-7.42,9.55-1.3,19.13-1.42,28.7-.62,12.22,1.02,24.19,3.17,34.99,9.44,7.26,4.21,12.67,10.01,14.59,18.45,.46,2.02,.73,4.13,.74,6.21,.05,21.81,.03,43.62,.03,65.44Z"/><path d="M492.69,68.75c-4.17-19.25-14.91-33.3-33.27-40.98-13.27-5.55-27.23-7.05-41.49-6.16-10.94,.68-21.46,3.15-31.37,7.9-12.17,5.83-21.46,14.58-26.85,27.15-3.18,7.41-4.55,15.2-4.82,23.22-.38,10.94,1.35,21.47,6.68,31.11,2.17,3.93,5.1,7.45,7.68,11.15h35.95c.03-7.56,.06-15.12,.09-22.68q.01-2.48,2.47-2.48c27.8,0,55.6,0,83.4,0h2.42c.09-.42,.15-.64,.18-.86,1.27-9.19,.89-18.33-1.07-27.37Zm-48.42,3.56c-6.45-.01-12.91,0-19.37,0s-12.68-.05-19.01,.03c-1.52,.02-2.01-.42-2.02-1.94-.08-10.41,6.73-17.83,17.15-18.46,4.71-.28,9.4-.13,13.89,1.66,8.14,3.24,10.96,10.42,11.2,17.32,.05,1.41-.85,1.39-1.84,1.39Z"/><path d="M351.22,51.82c0,1.48-.49,1.84-1.91,1.83-8.49-.06-16.98-.03-25.47-.03h-2.2c-.05,1.03-.12,1.89-.12,2.75,0,21.06,0,42.11-.01,63.16,0,.87-.06,1.74-.09,2.61h-26.18c-2.64-.31-5.33-.42-7.92-.97-7.66-1.64-13.22-7.93-14.32-16.09-.33-2.47-.51-4.97-.52-7.46-.05-13.78-.02-27.57-.02-41.35v-2.65h-2.07c-5.64,0-11.28-.03-16.92,.02-1.21,.01-1.62-.37-1.62-1.58,.03-9.01,.04-18.03,0-27.04,0-1.37,.55-1.63,1.78-1.61,5.58,.05,11.16-.05,16.74,.07,1.75,.03,2.14-.57,2.12-2.18-.07-6.4,0-12.79-.06-19.19-.01-1.51,.31-2.11,2.01-2.1C289.46,.07,304.47,.07,319.47,0c1.78-.01,2.1,.61,2.09,2.2-.07,6.34-.03,12.68-.02,19.02,0,.68,.09,1.36,.14,2.21h2.22c8.43,0,16.86,.03,25.3-.03,1.46-.01,2.05,.29,2.03,1.9-.07,8.84-.06,17.68,0,26.52Z"/><path d="M239.68,53.62h-1.91c-4.07,0-8.14-.05-12.21,.02-6.66,.11-12.54,2.1-17.11,7.23-3.03,3.41-4.22,7.54-4.26,11.89-.12,16.46-.03,32.92-.03,49.38h-49.91c.03-.75,.1-1.5,.1-2.26,0-31.29,0-62.59,0-93.88v-2.42h45.54v12.96c.14,.05,.28,.09,.42,.14,.28-.38,.57-.75,.82-1.14,5.87-9.26,14.29-13.98,25.24-14.26,4.04-.1,8.02,.2,11.85,1.54,.6,.21,1.4,1.01,1.4,1.55,.08,9.65,.06,19.31,.06,29.25Z"/></g></g></svg>