<?xml version="1.0" encoding="UTF-8"?><svg id="Calque_2" xmlns="http://www.w3.org/2000/svg" viewBox="0 0 230.15 230.02"><g id="Calque_1-2"><g><path d="M228.11,0H2.04C0,0,0,.01,0,2.06V227.95q0,2.07,2.03,2.07H228.11q2.04,0,2.04-2.06V2.07c0-2.06,0-2.07-2.04-2.07ZM43.83,55.93c4.76,.05,7.65,3.3,7.69,8.12,.02,3.96-2.99,7.41-8,7.33-4.04,.15-7.59-3.2-7.5-7.81,.09-4.36,3.41-7.68,7.81-7.64Zm157.13,93.1c-.11,.28-.56,.62-.84,.62-3.94-.13-7.93,.57-11.81-.85-3.44-1.25-5.77-3.51-7.1-6.87-.22-.55-.4-1.11-.68-1.86-.88,.85-1.62,1.56-2.37,2.24-3.45,3.15-6.95,6.25-11.53,7.73-6.85,2.21-13.72,2.19-20.62,.2-1.06-.31-2.19-.51-3.29-.52-10.76-.03-21.53-.02-32.3-.02-1.76,0-2.63-1.37-1.82-2.98,.14-.29,.67-.46,1.05-.54,1.72-.36,3.57-.42,4.75-2.01,.49-.64,1.07-1.32,1.24-2.08,.49-2.17,1.08-4.38,1.1-6.59,.11-9.94,.16-19.89-.04-29.83-.07-3.49-.64-7.06-2.47-10.21-2.42-4.14-5.94-6.52-10.81-6.74-3.55-.16-6.96,.16-10.1,2.11-3.76,2.34-6.43,5.57-8.18,9.6-1.66,3.84-2.08,7.91-2.12,12.03-.06,7.52-.05,15.04,.01,22.56,.02,1.89,.24,3.8,.6,5.66,.66,3.44,2.44,4.97,6.43,5.43,1.64,.19,1.38,1.19,1.42,2.2,.05,1.21-.68,1.4-1.68,1.4-19.72-.02-39.43-.01-59.15-.01-.84,0-1.64-.05-1.53-1.19,.1-.95-.55-2.18,1.28-2.42,1.4-.18,2.87-.68,4.06-1.42,1.98-1.23,2.24-3.53,2.62-5.57,.34-1.76,.31-3.6,.32-5.41,.02-13.11,.05-26.2-.05-39.3-.02-2.02-.52-4.1-1.14-6.05-.78-2.43-2.54-3.93-5.19-4.27-.88-.11-1.95-.03-1.93-1.51,.01-2.21-.02-2.25,2.18-2.25,5.53-.01,11.07-.01,16.6,0,1.98,0,2.43,.44,2.43,2.45,0,17.42-.02,34.84,.02,52.26,0,1.93,.15,3.9,.57,5.77,.63,2.8,2.19,4.94,5.37,5.14,2.49,.16,5.02,.4,7.48,.13,4.49-.49,5.33-2.15,6.32-6.47,.3-1.29,.34-2.66,.34-3.98,0-14.27,.01-28.54-.08-42.8-.02-2.81-.72-5.58-3.12-7.36-1.08-.81-2.54-1.22-3.89-1.49-1.74-.35-1.12-1.57-1.19-2.53-.08-1.05,.68-1.13,1.47-1.13,5.85,.01,11.68,0,17.51,.01,1.48,0,1.89,.45,1.9,1.99,.01,3.75,0,7.51,0,11.63,1.12-1.46,1.98-2.69,2.95-3.83,4.22-4.95,9.38-8.48,15.85-9.62,5.7-1.01,11.38-.88,16.67,1.93,4.26,2.27,6.75,6.03,8.61,10.34,1.89,4.39,2.14,9.07,2.21,13.71,.14,9.51,.03,19.02,.06,28.53,.01,1.68,.1,3.37,.36,5.02,.6,4.02,2.71,5.9,6.77,6.15,.75,.05,1.53,0,2.26,0-.95-1.47-2.06-2.77-2.71-4.26-2.85-6.57-1.67-12.6,2.95-17.93,3.97-4.59,9.25-7.29,14.77-9.55,5.25-2.14,10.71-3.58,16.27-4.67,2.92-.57,5.86-.98,8.81-1.37,.92-.12,1.3-.41,1.27-1.36-.1-3.37-.07-6.74-.24-10.1-.21-4.21-2.63-7.1-6.02-9.28-4.54-2.92-9.53-2.64-14.54-1.83-2.65,.42-5.06,1.42-7.08,3.24-1.51,1.37-1.66,2.76-.46,4.43,.6,.84,1.19,1.69,1.75,2.56,2.73,4.38,.61,9.71-4.31,11.19-5.37,1.62-11.18-2.58-11.18-8.35,0-5.07,2.5-8.77,6.07-11.94,4.94-4.4,10.82-6.57,17.33-7.41,5.21-.67,10.38-.58,15.4,.79,6.92,1.88,12.03,6,14.53,12.99,.94,2.62,1.38,5.26,1.38,7.99,.02,11.46-.03,22.91,.05,34.37,.02,1.99,.45,4,.91,5.96,.61,2.52,2.33,3.96,4.93,4.29,.21,.03,.42,.08,.64,.12,1.66,.32,2.3,1.39,1.7,2.98Z"/><path d="M180.35,118.91c-.34,3.43-.26,6.96-1.11,10.26-1.98,7.75-6.82,13.12-14.64,15.49-3.32,1-6.67,1.35-9.96-.2-2.85-1.34-4.63-3.58-5.3-6.62-.96-4.35-.61-8.57,1.78-12.48,1.27-2.07,3.1-3.57,5.14-4.81,4.48-2.73,9.47-4.11,14.52-5.28,2.56-.59,5.16-1.01,7.75-1.49,1.39-.25,1.55-.11,1.56,1.35v3.76c.09,.01,.17,.02,.26,.02Z"/></g></g></svg>