{
	"asset":{
		"generator":"Khronos glTF Blender I/O v3.6.28",
		"version":"2.0"
	},
	"scene":0,
	"scenes":[
		{
			"name":"Scene",
			"nodes":[
				9
			]
		}
	],
	"nodes":[
		{
			"mesh":0,
			"name":"NurbsPath.077",
			"rotation":[
				0.7252160310745239,
				-0.024790987372398376,
				0.687578022480011,
				0.026148034259676933
			],
			"scale":[
				-0.17158901691436768,
				-0.17158901691436768,
				-0.17158903181552887
			],
			"translation":[
				0.9008495807647705,
				0.20695719122886658,
				1.2628611326217651
			]
		},
		{
			"mesh":1,
			"name":"NurbsPath.078",
			"rotation":[
				-0.02614803984761238,
				0.6875779628753662,
				0.024790989235043526,
				0.7252159714698792
			],
			"scale":[
				0.17158900201320648,
				0.17158901691436768,
				0.17158900201320648
			],
			"translation":[
				-0.9206562042236328,
				0.1715637594461441,
				1.2163331508636475
			]
		},
		{
			"mesh":2,
			"name":"Plane.104",
			"rotation":[
				-0.7069815993309021,
				0.01330433040857315,
				0.013304308988153934,
				0.7069816589355469
			],
			"scale":[
				-0.9999999403953552,
				-1,
				-0.9999999403953552
			],
			"translation":[
				-0.016267312690615654,
				0,
				0.004182673525065184
			]
		},
		{
			"mesh":2,
			"name":"Plane.105",
			"rotation":[
				0.7071068286895752,
				0,
				0,
				0.7071068286895752
			]
		},
		{
			"mesh":3,
			"name":"Plane.106",
			"rotation":[
				0,
				0.03266536816954613,
				0,
				0.9994663596153259
			],
			"translation":[
				8.440017700195312e-05,
				1.633744478225708,
				-0.8501160740852356
			]
		},
		{
			"mesh":4,
			"name":"Plane.107",
			"rotation":[
				-0.9994663596153259,
				0,
				-0.03266536816954613,
				5.823875270927203e-10
			],
			"scale":[
				-1,
				-0.9999999403953552,
				-1
			],
			"translation":[
				-0.42861250042915344,
				1.287619948387146,
				-1.094449520111084
			]
		},
		{
			"mesh":5,
			"name":"Plane.108",
			"rotation":[
				0,
				0.03266536816954613,
				0,
				0.9994663596153259
			],
			"translation":[
				0.44858023524284363,
				1.2888668775558472,
				-1.0923092365264893
			]
		},
		{
			"mesh":6,
			"name":"Sphere.010",
			"translation":[
				0.5935784578323364,
				0.15103179216384888,
				1.1132714748382568
			]
		},
		{
			"mesh":6,
			"name":"Sphere.011",
			"translation":[
				-0.6000005602836609,
				0.15103180706501007,
				1.1132713556289673
			]
		},
		{
			"children":[
				0,
				1,
				2,
				3,
				4,
				5,
				6,
				7,
				8
			],
			"mesh":7,
			"name":"Cube.016",
			"rotation":[
				0.06288980692625046,
				0.16037946939468384,
				0.01954829879105091,
				0.9848560094833374
			]
		}
	],
	"materials":[
		{
			"doubleSided":true,
			"name":"nu_hair.001",
			"pbrMetallicRoughness":{
				"baseColorFactor":[
					1,
					0.0012138455640524626,
					0.06480327993631363,
					1
				],
				"metallicFactor":0.671875,
				"roughnessFactor":0.4140625
			}
		}
	],
	"meshes":[
		{
			"name":"NurbsPath.005",
			"primitives":[
				{
					"attributes":{
						"POSITION":0,
						"NORMAL":1,
						"TEXCOORD_0":2
					},
					"indices":3,
					"material":0
				}
			]
		},
		{
			"name":"NurbsPath.007",
			"primitives":[
				{
					"attributes":{
						"POSITION":4,
						"NORMAL":5,
						"TEXCOORD_0":6
					},
					"indices":7,
					"material":0
				}
			]
		},
		{
			"name":"eyebrow.002",
			"primitives":[
				{
					"attributes":{
						"POSITION":8,
						"NORMAL":9,
						"TEXCOORD_0":10
					},
					"indices":11,
					"material":0
				}
			]
		},
		{
			"name":"Plane.090",
			"primitives":[
				{
					"attributes":{
						"POSITION":12,
						"NORMAL":13,
						"TEXCOORD_0":14
					},
					"indices":15,
					"material":0
				}
			]
		},
		{
			"name":"Plane.091",
			"primitives":[
				{
					"attributes":{
						"POSITION":16,
						"NORMAL":17,
						"TEXCOORD_0":18
					},
					"indices":19,
					"material":0
				}
			]
		},
		{
			"name":"Plane.092",
			"primitives":[
				{
					"attributes":{
						"POSITION":20,
						"NORMAL":21,
						"TEXCOORD_0":22
					},
					"indices":23,
					"material":0
				}
			]
		},
		{
			"name":"eye.001",
			"primitives":[
				{
					"attributes":{
						"POSITION":24,
						"NORMAL":25,
						"TEXCOORD_0":26
					},
					"indices":27,
					"material":0
				}
			]
		},
		{
			"name":"new-face.004",
			"primitives":[
				{
					"attributes":{
						"POSITION":28,
						"NORMAL":29,
						"TEXCOORD_0":30
					},
					"indices":31,
					"material":0
				}
			]
		}
	],
	"accessors":[
		{
			"bufferView":0,
			"componentType":5126,
			"count":999,
			"max":[
				0.9770224094390869,
				0.48740777373313904,
				3.342977523803711
			],
			"min":[
				-1.560037612915039,
				-1.2619837522506714,
				-0.4795762300491333
			],
			"type":"VEC3"
		},
		{
			"bufferView":1,
			"componentType":5126,
			"count":999,
			"type":"VEC3"
		},
		{
			"bufferView":2,
			"componentType":5126,
			"count":999,
			"type":"VEC2"
		},
		{
			"bufferView":3,
			"componentType":5123,
			"count":2970,
			"type":"SCALAR"
		},
		{
			"bufferView":4,
			"componentType":5126,
			"count":977,
			"max":[
				0.7107303142547607,
				0.6148068904876709,
				3.3575639724731445
			],
			"min":[
				-1.8505715131759644,
				-1.0818004608154297,
				-0.3692653477191925
			],
			"type":"VEC3"
		},
		{
			"bufferView":5,
			"componentType":5126,
			"count":977,
			"type":"VEC3"
		},
		{
			"bufferView":6,
			"componentType":5126,
			"count":977,
			"type":"VEC2"
		},
		{
			"bufferView":7,
			"componentType":5123,
			"count":2934,
			"type":"SCALAR"
		},
		{
			"bufferView":8,
			"componentType":5126,
			"count":266,
			"max":[
				-0.20162740349769592,
				1.6777178049087524,
				-0.34022679924964905
			],
			"min":[
				-1.1156020164489746,
				1.0094952583312988,
				-0.6024365425109863
			],
			"type":"VEC3"
		},
		{
			"bufferView":9,
			"componentType":5126,
			"count":266,
			"type":"VEC3"
		},
		{
			"bufferView":10,
			"componentType":5126,
			"count":266,
			"type":"VEC2"
		},
		{
			"bufferView":11,
			"componentType":5123,
			"count":420,
			"type":"SCALAR"
		},
		{
			"bufferView":12,
			"componentType":5126,
			"count":4042,
			"max":[
				0.48454785346984863,
				0.6931933164596558,
				2.004579544067383
			],
			"min":[
				-0.5406136512756348,
				-2.749056816101074,
				-1.4152946472167969
			],
			"type":"VEC3"
		},
		{
			"bufferView":13,
			"componentType":5126,
			"count":4042,
			"type":"VEC3"
		},
		{
			"bufferView":14,
			"componentType":5126,
			"count":4042,
			"type":"VEC2"
		},
		{
			"bufferView":15,
			"componentType":5123,
			"count":4836,
			"type":"SCALAR"
		},
		{
			"bufferView":16,
			"componentType":5126,
			"count":3902,
			"max":[
				0.5317831039428711,
				0.9116946458816528,
				2.18679141998291
			],
			"min":[
				-0.5691728591918945,
				-2.685774326324463,
				-1.140261173248291
			],
			"type":"VEC3"
		},
		{
			"bufferView":17,
			"componentType":5126,
			"count":3902,
			"type":"VEC3"
		},
		{
			"bufferView":18,
			"componentType":5126,
			"count":3902,
			"type":"VEC2"
		},
		{
			"bufferView":19,
			"componentType":5123,
			"count":4530,
			"type":"SCALAR"
		},
		{
			"bufferView":20,
			"componentType":5126,
			"count":3909,
			"max":[
				0.5320155620574951,
				0.9104477167129517,
				2.2274880409240723
			],
			"min":[
				-0.5689406394958496,
				-2.687021255493164,
				-1.1423907279968262
			],
			"type":"VEC3"
		},
		{
			"bufferView":21,
			"componentType":5126,
			"count":3909,
			"type":"VEC3"
		},
		{
			"bufferView":22,
			"componentType":5126,
			"count":3909,
			"type":"VEC2"
		},
		{
			"bufferView":23,
			"componentType":5123,
			"count":4533,
			"type":"SCALAR"
		},
		{
			"bufferView":24,
			"componentType":5126,
			"count":559,
			"max":[
				0.26098644733428955,
				0.260986328125,
				0.2609858512878418
			],
			"min":[
				-0.26098668575286865,
				-0.2609863579273224,
				-0.26098668575286865
			],
			"type":"VEC3"
		},
		{
			"bufferView":25,
			"componentType":5126,
			"count":559,
			"type":"VEC3"
		},
		{
			"bufferView":26,
			"componentType":5126,
			"count":559,
			"type":"VEC2"
		},
		{
			"bufferView":27,
			"componentType":5123,
			"count":2880,
			"type":"SCALAR"
		},
		{
			"bufferView":28,
			"componentType":5126,
			"count":5906,
			"max":[
				1.4520652294158936,
				2.1629457473754883,
				2.027604579925537
			],
			"min":[
				-1.4520652294158936,
				-2.3521883487701416,
				-1.8729139566421509
			],
			"type":"VEC3"
		},
		{
			"bufferView":29,
			"componentType":5126,
			"count":5906,
			"type":"VEC3"
		},
		{
			"bufferView":30,
			"componentType":5126,
			"count":5906,
			"type":"VEC2"
		},
		{
			"bufferView":31,
			"componentType":5123,
			"count":8658,
			"type":"SCALAR"
		}
	],
	"bufferViews":[
		{
			"buffer":0,
			"byteLength":11988,
			"byteOffset":0,
			"target":34962
		},
		{
			"buffer":0,
			"byteLength":11988,
			"byteOffset":11988,
			"target":34962
		},
		{
			"buffer":0,
			"byteLength":7992,
			"byteOffset":23976,
			"target":34962
		},
		{
			"buffer":0,
			"byteLength":5940,
			"byteOffset":31968,
			"target":34963
		},
		{
			"buffer":0,
			"byteLength":11724,
			"byteOffset":37908,
			"target":34962
		},
		{
			"buffer":0,
			"byteLength":11724,
			"byteOffset":49632,
			"target":34962
		},
		{
			"buffer":0,
			"byteLength":7816,
			"byteOffset":61356,
			"target":34962
		},
		{
			"buffer":0,
			"byteLength":5868,
			"byteOffset":69172,
			"target":34963
		},
		{
			"buffer":0,
			"byteLength":3192,
			"byteOffset":75040,
			"target":34962
		},
		{
			"buffer":0,
			"byteLength":3192,
			"byteOffset":78232,
			"target":34962
		},
		{
			"buffer":0,
			"byteLength":2128,
			"byteOffset":81424,
			"target":34962
		},
		{
			"buffer":0,
			"byteLength":840,
			"byteOffset":83552,
			"target":34963
		},
		{
			"buffer":0,
			"byteLength":48504,
			"byteOffset":84392,
			"target":34962
		},
		{
			"buffer":0,
			"byteLength":48504,
			"byteOffset":132896,
			"target":34962
		},
		{
			"buffer":0,
			"byteLength":32336,
			"byteOffset":181400,
			"target":34962
		},
		{
			"buffer":0,
			"byteLength":9672,
			"byteOffset":213736,
			"target":34963
		},
		{
			"buffer":0,
			"byteLength":46824,
			"byteOffset":223408,
			"target":34962
		},
		{
			"buffer":0,
			"byteLength":46824,
			"byteOffset":270232,
			"target":34962
		},
		{
			"buffer":0,
			"byteLength":31216,
			"byteOffset":317056,
			"target":34962
		},
		{
			"buffer":0,
			"byteLength":9060,
			"byteOffset":348272,
			"target":34963
		},
		{
			"buffer":0,
			"byteLength":46908,
			"byteOffset":357332,
			"target":34962
		},
		{
			"buffer":0,
			"byteLength":46908,
			"byteOffset":404240,
			"target":34962
		},
		{
			"buffer":0,
			"byteLength":31272,
			"byteOffset":451148,
			"target":34962
		},
		{
			"buffer":0,
			"byteLength":9066,
			"byteOffset":482420,
			"target":34963
		},
		{
			"buffer":0,
			"byteLength":6708,
			"byteOffset":491488,
			"target":34962
		},
		{
			"buffer":0,
			"byteLength":6708,
			"byteOffset":498196,
			"target":34962
		},
		{
			"buffer":0,
			"byteLength":4472,
			"byteOffset":504904,
			"target":34962
		},
		{
			"buffer":0,
			"byteLength":5760,
			"byteOffset":509376,
			"target":34963
		},
		{
			"buffer":0,
			"byteLength":70872,
			"byteOffset":515136,
			"target":34962
		},
		{
			"buffer":0,
			"byteLength":70872,
			"byteOffset":586008,
			"target":34962
		},
		{
			"buffer":0,
			"byteLength":47248,
			"byteOffset":656880,
			"target":34962
		},
		{
			"buffer":0,
			"byteLength":17316,
			"byteOffset":704128,
			"target":34963
		}
	],
	"buffers":[
		{
			"byteLength":721444,
			"uri":"cats.bin"
		}
	]
}
