<?xml version="1.0" encoding="utf-8"?>
<!-- Generator: Adobe Illustrator 24.2.0, SVG Export Plug-In . SVG Version: 6.00 Build 0)  -->
<svg version="1.1" id="Calque_1" xmlns="http://www.w3.org/2000/svg" xmlns:xlink="http://www.w3.org/1999/xlink" x="0px" y="0px"
	 viewBox="0 0 180 180" style="enable-background:new 0 0 180 180;" xml:space="preserve">
<g>
	<g>
		<path d="M64.5,151.5c-1.4,0.4-2.9,0.6-4.4,0.6c-1.5,0-3-0.2-4.4-0.6l4.4-13.8L64.5,151.5z M78.2,165.2L65.5,128H54.7L42,165.2h9.3
			l2.1-6.5c2.1,0.5,4.4,0.8,6.7,0.8c2.3,0,4.6-0.3,6.7-0.8l2.1,6.5H78.2z"/>
		<path d="M33.6,140.7c0-2.7-1.9-4.8-4.5-4.8h-5.6v9.6h5.6C31.7,145.5,33.6,143.4,33.6,140.7 M42.1,140.7c0,7.1-5.7,12.8-13,12.8
			h-5.6v11.7H15V128h14.1C36.4,128,42.1,133.6,42.1,140.7"/>
	</g>
	<rect x="120.2" y="128" width="8.5" height="37.3"/>
	<g>
		<path d="M92,146.1h6.4c2.3,0,4.3-2.2,4.3-5.1c0-2.9-1.9-5.1-4.3-5.1H92V146.1z M92,153.5v11.7h-8.5V128h14.9
			c7.1,0,12.8,5.7,12.8,12.8c0,4.6-2.6,9.1-6.8,11l7.8,13.5h-9.2l-6.7-11.7H92z"/>
		<path d="M150.3,135.5c3.7,0,5.2,2,6.5,3.8l7.1-3.7c-1.2-2.3-4.7-8.4-13.6-8.4c-6.3,0-12.5,4-12.5,11.3c0,8.8,8.4,10.4,11,11.3
			c2.6,0.9,7.7,1.6,7.7,4.7c0,2.2-2.3,3-5.3,3c-3.4,0-6-1.8-7.7-4.7l-7.2,3.8c0.6,1.5,4.8,9.2,14.9,9.2c8,0,13.8-4.2,13.8-11.5
			c0-5.7-3.1-8.9-10.6-11.1c-5.8-1.7-8.1-2.7-8.1-5.1C146.3,136.6,148,135.5,150.3,135.5"/>
	</g>
	<polygon points="39.4,108.1 41.5,108.1 44.7,117.6 47.8,108.1 50,108.1 45.9,120 43.5,120 	"/>
	<rect x="56.8" y="108.1" width="1.9" height="11.8"/>
	<polygon points="67.3,108.1 67.3,120 74.1,120 74.1,118.1 69.3,118.1 69.3,108.1 	"/>
	<polygon points="80.4,108.1 80.4,120 87.2,120 87.2,118.1 82.4,118.1 82.4,108.1 	"/>
	<g>
		<path d="M124.7,114.1c0-2.3-1.5-4.1-3.8-4.1h-2.7v8.1h2.7C123.1,118.1,124.7,116.4,124.7,114.1 M126.6,114.1
			c0,3.3-2.4,5.9-5.7,5.9h-4.6v-11.8h4.6C124.2,108.1,126.6,110.7,126.6,114.1"/>
	</g>
	<polygon points="133.4,108.1 133.4,120 140.6,120 140.6,118.1 135.3,118.1 135.3,114.9 138.6,114.9 138.6,113.1 135.3,113.1 
		135.3,110 140.5,110 140.5,108.1 	"/>
	<polygon points="93.5,108.1 93.5,120 100.7,120 100.7,118.1 95.5,118.1 95.5,114.9 98.8,114.9 98.8,113.1 95.5,113.1 95.5,110 
		100.6,110 100.6,108.1 	"/>
	<g>
		<path d="M136.2,65.1c-0.3,0-0.6,0.3-1,1.1c-8.5,18.6-24.1,27.5-40.7,27.6c-33,0.2-40.8-26.9-41-27.7l16.8,3.2
			c0.1,0.2,6.5,15,23.6,15c18,0,30.5-18,30.5-36.5c0-16.7-7.1-26.3-17.3-33.8L61.3,35.3c-0.4,0.2-0.3,0.8,0.1,0.9
			c25.4,5.9,29.7,24.1,28.5,34.5c-0.2,1.5,0.8,1.3,1.8-1.6c3.5-10.3,1-25.3-12.8-33.7l25.5-12.8c3.1,2.4,13.1,9.1,13.1,25.2
			c0,16.1-9.3,30.7-23.6,30.7c-14.2,0-19.2-14.5-19.2-14.7l-30.3-6.6c-0.5-0.1-0.9,0.3-0.9,0.8c2.6,23.1,21.2,42.1,48,42.1
			c22.3,0,37.4-12.2,43.8-29.5C136.8,66.5,136.7,65.1,136.2,65.1"/>
	</g>
</g>
</svg>
