<svg width="42" height="41" viewBox="0 0 42 41" fill="none" xmlns="http://www.w3.org/2000/svg">
<g clip-path="url(#clip0_197_10)">
<path d="M36.7835 24.4886C36.0415 23.2721 36.2614 21.986 37.3457 21.0481C38.0969 20.3994 39 20.073 39.9754 19.9548C40.6321 19.8746 41.2982 19.8675 42 19.826C41.9086 17.5004 41.4108 15.2076 40.5283 13.0478C39.4082 13.5403 38.2946 13.764 37.1165 13.7007C34.9043 13.5832 33.6789 11.8243 34.413 9.7769C34.7861 8.73631 35.4722 7.91032 36.3194 7.20464C36.4325 7.11036 36.5407 7.01115 36.6675 6.89929C35.0876 5.19101 33.3223 3.78386 31.2905 2.67785C31.1186 2.9438 30.9847 3.17035 30.8336 3.38142C30.1482 4.34109 29.3297 5.14669 28.163 5.52239C26.8675 5.9382 25.6787 5.52239 24.9668 4.38331C24.338 3.37509 24.1998 2.26133 24.3144 1.10536C24.3409 0.836598 24.381 0.56924 24.4168 0.286404C22.1591 -0.0996959 19.85 -0.0930279 17.5946 0.306104C17.6262 0.560797 17.6577 0.78594 17.6806 1.00968C17.803 2.22686 17.6806 3.40182 16.9852 4.45718C16.3299 5.4457 15.3187 5.84463 14.1571 5.60401C13.4021 5.45025 12.7135 5.07254 12.184 4.52191C11.6398 3.95905 11.1671 3.33499 10.6336 2.70318C8.64133 3.81027 6.85175 5.23713 5.33898 6.92461C6.38815 7.7492 7.22249 8.66455 7.6264 9.8944C8.19933 11.6322 7.40725 13.0999 5.63762 13.5677C5.33514 13.6409 5.02629 13.6856 4.7152 13.7014C3.5851 13.7809 2.52375 13.496 1.4624 13.0485C0.577468 15.2214 0.0826805 17.5286 0 19.8675C0.486273 19.8675 0.893053 19.8485 1.29768 19.8711C2.33827 19.9295 3.33588 20.1525 4.22248 20.721C5.83241 21.7552 6.10885 23.4846 4.90355 24.9572C4.24111 25.767 3.38815 26.32 2.41059 26.6901C1.96657 26.8589 1.50966 26.9933 1.03986 27.1495C1.81065 29.4484 2.99083 31.5945 4.52542 33.488C4.58128 33.4683 4.59704 33.4676 4.60993 33.4578C4.70804 33.3585 4.80329 33.2572 4.9014 33.1587C5.80233 32.2582 6.82716 31.5574 8.09047 31.2366C9.98973 30.7539 11.503 31.5567 11.8539 33.3002C11.9606 33.8285 11.9327 34.4062 11.8489 34.9437C11.6469 36.2312 10.9945 37.326 10.143 38.3483C12.3242 39.6548 14.7326 40.5539 17.2466 41.0001C17.311 40.3999 17.3325 39.8328 17.4385 39.2819C17.6971 37.9395 18.2263 36.7258 19.3722 35.8696C20.3834 35.1147 21.6087 35.1175 22.6242 35.8626C23.6398 36.6076 24.1719 37.656 24.454 38.8267C24.6216 39.519 24.6753 40.2381 24.7856 40.9867C27.2871 40.5398 29.6841 39.6463 31.8577 38.3504C31.7066 38.1576 31.5784 38.0028 31.4602 37.8417C30.5457 36.5879 29.9692 35.2286 30.0809 33.6463C30.1704 32.3757 31.0041 31.4308 32.2616 31.1676C33.1117 30.9903 33.9088 31.1838 34.678 31.4913C35.7687 31.9261 36.6531 32.6493 37.4602 33.5401C39.009 31.6237 40.1938 29.4489 40.958 27.12C40.6293 27.0257 40.3435 26.956 40.0649 26.8618C38.7214 26.4101 37.5405 25.7234 36.7835 24.4886ZM21.0236 30.8482C19.6404 30.856 18.2692 30.5948 16.9891 30.0797C15.709 29.5646 14.5454 28.8058 13.5651 27.8469C12.5849 26.888 11.8075 25.748 11.2777 24.4927C10.7479 23.2373 10.4761 21.8914 10.4782 20.5324C10.4638 14.7899 15.1239 10.1899 20.9742 10.1695C23.7207 10.2296 26.3345 11.3421 28.2576 13.2694C30.1807 15.1968 31.2607 17.7863 31.2672 20.4852C31.2736 23.184 30.206 25.7785 28.2921 27.7147C26.3782 29.6509 23.7698 30.7754 21.0236 30.8482Z" fill="#FF0C63"/>
</g>
<defs>
<clipPath id="clip0_197_10">
<rect width="42" height="41" fill="white"/>
</clipPath>
</defs>
</svg>
