<svg width="41" height="40" viewBox="0 0 41 40" fill="none" xmlns="http://www.w3.org/2000/svg">
<path d="M38.4623 40H1.74048H1.56909C1.10193 39.8732 0.692161 39.592 0.407339 39.2026C0.122518 38.8133 -0.0203171 38.339 0.00233263 37.8581C0.00233263 26.0129 0.00233263 14.1433 0.00233263 2.24945C0.00217511 1.88919 0.0771908 1.53282 0.222655 1.20286C0.411564 0.810711 0.717287 0.485885 1.09834 0.272512C1.47939 0.059139 1.91728 -0.0324398 2.35251 0.0102169H38.2175C38.6009 0.035264 38.9702 0.164187 39.2852 0.383001C39.6003 0.601814 39.849 0.902176 40.0046 1.25154C40.0724 1.40156 40.1297 1.55608 40.176 1.71398V38.2719C40.0291 38.564 39.9067 38.8804 39.7354 39.1481C39.4138 39.5604 38.9675 39.859 38.4623 40ZM3.67451 29.8261H14.3728C15.2039 29.7993 16.0276 29.6601 16.8209 29.4123C17.6042 29.218 18.3271 28.834 18.9251 28.2947C19.523 27.7554 19.9776 27.0774 20.2483 26.3212C20.7468 24.8829 20.7811 23.3257 20.3462 21.8671C20.2557 21.2694 20.0123 20.7048 19.6394 20.2275C19.2664 19.7502 18.7764 19.3761 18.2164 19.1411C17.8424 19.0038 17.4575 18.8979 17.0657 18.8246C17.5214 18.7303 17.9534 18.546 18.336 18.2826C18.7187 18.0192 19.0444 17.6821 19.2935 17.2913C19.6871 16.6292 19.8824 15.8693 19.8566 15.1007C19.9469 14.2567 19.8137 13.4038 19.4701 12.6267C19.1266 11.8497 18.5847 11.1754 17.8981 10.6709C16.7572 9.88975 15.389 9.50475 14.0056 9.57563H3.57657L3.67451 29.8261ZM36.3324 23.5708C36.3373 23.4898 36.3373 23.4085 36.3324 23.3274C36.453 21.9054 36.2865 20.4738 35.8428 19.1167C35.5807 18.3277 35.1557 17.6019 34.595 16.9857C34.0343 16.3696 33.3503 15.8767 32.5868 15.5388C31.0388 14.9026 29.3407 14.7169 27.6906 15.0033C26.7796 15.1015 25.8994 15.3883 25.1067 15.8452C24.314 16.3022 23.6264 16.9191 23.0881 17.6564C22.3685 18.6283 21.858 19.7372 21.5884 20.9139C21.3189 22.0906 21.2961 23.3099 21.5213 24.4957C21.6539 25.4975 22.0136 26.4563 22.5734 27.2995C23.1332 28.1428 23.8784 28.8486 24.7528 29.3636C26.2055 30.1477 27.8534 30.5024 29.5022 30.3859C31.254 30.4687 32.9817 29.9534 34.3984 28.9255C34.9808 28.461 35.4442 27.8659 35.7506 27.189C36.057 26.5121 36.1976 25.7726 36.161 25.0312H32.5868C32.5499 25.4959 32.3632 25.9363 32.0545 26.2871C31.7458 26.6379 31.3314 26.8803 30.8731 26.9784C30.022 27.1968 29.1291 27.1968 28.2781 26.9784C27.5108 26.8356 26.8283 26.4044 26.3724 25.7743C25.9165 25.1443 25.7222 24.3639 25.83 23.5952L36.3324 23.5708ZM24.9242 13.2996H33.2723V10.8656H24.9242V13.2996Z" fill="#FF0C63"/>
<path d="M8.32587 26.2481V20.8934H8.74208H13.8586C14.1565 20.8562 14.4589 20.8805 14.7468 20.9649C15.0347 21.0494 15.302 21.192 15.5319 21.384C15.7617 21.576 15.9492 21.8131 16.0826 22.0805C16.2159 22.3479 16.2922 22.6398 16.3068 22.9379C16.3667 23.5986 16.317 24.2647 16.1599 24.9094C16.0449 25.3138 15.7965 25.6681 15.4546 25.9153C15.1127 26.1625 14.6972 26.2883 14.2748 26.2724H8.35037L8.32587 26.2481Z" fill="#FF0C63"/>
<path d="M8.32587 17.7536V13.2265H13.8586C14.055 13.1992 14.2548 13.211 14.4465 13.2613C14.6382 13.3116 14.818 13.3993 14.9752 13.5194C15.1324 13.6395 15.2641 13.7895 15.3624 13.9607C15.4607 14.1319 15.5238 14.3208 15.5479 14.5165C15.7789 15.3208 15.7271 16.1794 15.401 16.9504C15.3199 17.1786 15.1758 17.3794 14.9854 17.5301C14.7949 17.6807 14.5656 17.775 14.3238 17.8023H13.5649H8.32587V17.7536Z" fill="#FF0C63"/>
<path d="M32.4399 20.8206H25.879C25.9642 19.9772 26.3626 19.1956 26.9963 18.6285C27.6301 18.0614 28.4537 17.7496 29.3063 17.7538C29.7209 17.7257 30.1369 17.7854 30.5266 17.9289C30.9163 18.0724 31.2709 18.2965 31.5671 18.5863C31.8632 18.8762 32.0942 19.2252 32.2446 19.6103C32.3951 19.9955 32.4617 20.408 32.4399 20.8206Z" fill="#FF0C63"/>
</svg>
