<svg width="41" height="40" viewBox="0 0 41 40" fill="none" xmlns="http://www.w3.org/2000/svg">
<path d="M40.2567 12.9579C40.1967 11.3147 39.9993 9.67936 39.6666 8.06871C39.1235 5.93921 37.9139 4.03632 36.2124 2.63467C34.5109 1.23302 32.4055 0.405106 30.2 0.270411C28.233 0.074843 26.2413 0.00150334 24.2496 0.00150334C19.9712 0.00150334 15.7175 0.00150334 11.4391 0.00150334C9.85526 -0.0241078 8.28342 0.277767 6.82313 0.88796C5.36283 1.49815 4.046 2.40336 2.95613 3.54619C1.04872 5.59999 0.00967164 8.30497 0.0546409 11.1C0.0546409 17.016 -0.0683011 22.9564 0.0546409 28.8723C0.0136595 30.6336 0.409455 32.3778 1.20707 33.951C2.00469 35.5243 3.17963 36.878 4.62812 37.8929C6.81043 39.3324 9.38668 40.0666 12.0046 39.9952C13.7996 39.9952 15.5945 39.9952 17.3895 39.9952C17.66 39.9952 17.9304 39.9952 18.2009 39.9952H22.1104C23.5366 39.9952 24.9627 39.9953 26.3643 39.873C28.1773 39.847 29.9857 39.6835 31.7737 39.3841C33.8926 38.9824 35.8306 37.9282 37.3134 36.3707C38.7962 34.8131 39.7485 32.8313 40.0354 30.7058C40.3305 28.5301 40.3058 26.281 40.4042 24.0809V22.003V18.116C40.355 16.4293 40.3796 14.718 40.2567 12.9579ZM36.47 29.239C36.4391 31.0579 35.7292 32.8005 34.4784 34.1282C33.8176 34.8102 33.0278 35.3557 32.1543 35.7332C31.2808 36.1108 30.341 36.3131 29.3887 36.3283C25.7987 36.475 22.1842 36.5239 18.5943 36.5484C16.1355 36.5484 13.4307 36.5484 10.8244 36.3283C9.3748 36.2722 7.96975 35.8151 6.7673 35.0082C5.90575 34.411 5.19082 33.6283 4.67569 32.7183C4.16057 31.8083 3.85856 30.7945 3.79212 29.7524C3.62001 27.87 3.54623 25.9877 3.54623 24.1053C3.54623 20.0717 3.54623 16.0137 3.54623 11.8823C3.57605 11.0095 3.6913 10.1416 3.89042 9.29101C4.18023 7.79156 4.96776 6.43216 6.12685 5.43047C7.28595 4.42878 8.74958 3.84275 10.2834 3.7662C12.3488 3.57063 14.4143 3.57063 16.4797 3.49729C17.66 3.49729 18.9386 3.49729 19.9959 3.49729C23.1924 3.49729 26.3888 3.49729 29.5853 3.86398C31.4072 3.90885 33.138 4.66499 34.4034 5.96883C35.6688 7.27266 36.3671 9.01937 36.3471 10.8311C36.5684 14.4002 36.5684 17.9938 36.593 21.5629C36.6914 24.1542 36.6176 26.7455 36.47 29.3123V29.239Z" fill="#FF0C63"/>
<path d="M20.1187 9.78003C17.3602 9.78003 14.7148 10.8695 12.7642 12.8088C10.8137 14.748 9.7179 17.3782 9.7179 20.1207C9.7179 22.8632 10.8137 25.4934 12.7642 27.4327C14.7148 29.3719 17.3602 30.4614 20.1187 30.4614C22.8772 30.4614 25.5227 29.3719 27.4733 27.4327C29.4238 25.4934 30.5197 22.8632 30.5197 20.1207C30.5197 17.3782 29.4238 14.748 27.4733 12.8088C25.5227 10.8695 22.8772 9.78003 20.1187 9.78003ZM20.1187 26.8923C18.7803 26.8971 17.4706 26.5069 16.3554 25.7712C15.2402 25.0355 14.3697 23.9872 13.8541 22.7593C13.3386 21.5313 13.2012 20.1788 13.4593 18.8731C13.7174 17.5674 14.3595 16.3673 15.3042 15.4247C16.2488 14.482 17.4536 13.8393 18.766 13.578C20.0783 13.3166 21.4391 13.4483 22.6761 13.9564C23.9131 14.4645 24.9706 15.3261 25.7147 16.4322C26.4588 17.5382 26.856 18.8389 26.856 20.1696C26.843 21.9376 26.1275 23.6288 24.8654 24.8744C23.6033 26.12 21.8971 26.819 20.1187 26.8189V26.8923Z" fill="#FF0C63"/>
<path d="M33.3474 9.36452C33.3474 10.0129 33.0883 10.6347 32.6272 11.0931C32.1661 11.5516 31.5406 11.8091 30.8885 11.8091C30.4022 11.8091 29.9268 11.6658 29.5224 11.3971C29.1181 11.1285 28.8029 10.7467 28.6168 10.3C28.4307 9.85334 28.3821 9.36181 28.4769 8.8876C28.5718 8.41339 28.806 7.97781 29.1499 7.63592C29.4938 7.29404 29.9318 7.06122 30.4088 6.9669C30.8858 6.87257 31.3802 6.92097 31.8295 7.106C32.2788 7.29102 32.6628 7.60435 32.933 8.00637C33.2032 8.40838 33.3474 8.88102 33.3474 9.36452Z" fill="#FF0C63"/>
</svg>
