<?xml version="1.0" encoding="UTF-8"?><svg id="Calque_2" xmlns="http://www.w3.org/2000/svg" viewBox="0 0 462.77 828.42"><defs><style>.cls-1{fill:#e62049;}</style></defs><g id="Calque_1-2"><g><path class="cls-1" d="M230.77,250.93V828.38c-.11,.01-.23,.03-.35,.04-8.13-35.66-16.3-71.3-24.38-106.97-5.72-25.24-11.33-50.51-16.98-75.77-7.02-31.46-14.01-62.93-21.05-94.39-5.27-23.51-10.62-46.99-15.89-70.5-7.72-34.48-15.4-68.96-23.1-103.44-1.31-5.87-2.83-11.71-3.85-17.63-.28-1.67,.33-4.15,1.49-5.31,34.33-34.48,68.77-68.84,103.2-103.21,.09-.09,.28-.09,.91-.27Z"/><path class="cls-1" d="M210.36,229.88H0c34.96-34.96,70.26-70.26,105.18-105.17,34.72,34.72,70.23,70.22,105.18,105.17Z"/><path class="cls-1" d="M462.77,230.87c-35.03,35.02-70.09,70.09-104.88,104.88-34.76-34.76-69.83-69.84-104.87-104.88h209.75Z"/><path class="cls-1" d="M336.81,103.95c-34.32,34.3-69.39,69.36-104.63,104.58V0c34.46,34.24,69.68,69.23,104.63,103.95Z"/></g></g></svg>