<svg width="58" height="44" viewBox="0 0 58 44" fill="none" xmlns="http://www.w3.org/2000/svg">
<g clip-path="url(#clip0_197_7)">
<path d="M57.4274 11.9713C57.1676 12.13 56.8923 12.2608 56.606 12.3616C48.2301 15.4945 39.8427 18.6017 31.4836 21.7776C30.3293 22.2162 29.3625 22.1944 28.228 21.7565C24.0829 20.1573 19.9018 18.6548 15.7345 17.1188C15.5761 17.061 15.4199 16.9978 15.1283 16.8846C15.4 16.7543 15.57 16.6653 15.7452 16.5896C20.4157 14.5603 25.087 12.531 29.759 10.5017C30.2374 10.294 30.6324 10.0217 30.7541 9.47764C30.8835 8.88914 30.7633 8.3584 30.2948 7.95879C29.847 7.5779 29.3625 7.62551 28.8542 7.84874C24.4154 9.79843 19.9761 11.7437 15.5363 13.6845C14.4577 14.1575 13.3983 14.6836 12.2967 15.0957C11.2618 15.4859 10.5285 16.1884 9.91838 17.0719C8.5229 19.0856 8.21441 21.4076 8.11949 23.7842C8.11413 23.9201 8.24809 24.0886 8.35985 24.1971C9.71859 25.5115 9.78901 27.366 8.55276 28.8076C8.39739 29.0103 8.31352 29.2605 8.31469 29.5178C8.33919 31.9483 8.49305 34.3827 8.40272 36.8077C8.31546 39.1492 7.6801 41.3448 5.86208 42.9901C4.51023 44.2139 4.0785 44.2943 2.52686 43.3858C1.64885 42.8714 0.842796 42.233 0.000762939 41.6507C0.717256 40.5806 1.39394 39.6277 2.01093 38.6372C3.70571 35.914 4.83097 32.9692 5.2849 29.7668C5.3293 29.4546 5.27954 29.2985 5.02923 29.0987C3.26862 27.7094 3.41176 25.1392 5.27495 23.8951C5.44489 23.7811 5.57349 23.4752 5.58115 23.2535C5.63779 21.4365 5.73424 19.6289 6.36577 17.8993C6.82506 16.6341 7.53237 15.525 8.50912 14.4791C7.72603 14.1825 7.01107 13.9078 6.29305 13.6401C5.06827 13.1837 3.83967 12.7295 2.60724 12.2773C2.57203 12.2648 2.53069 12.2547 2.50007 12.2391C1.93591 11.9792 1.19415 11.809 1.21329 11.034C1.2309 10.3097 1.92213 10.0974 2.49242 9.8835C6.60613 8.36309 10.7214 6.84735 14.8382 5.3363C19.5757 3.58719 24.308 1.82404 29.0532 0.0960091C29.4434 -0.0359093 29.8649 -0.0359093 30.255 0.0960091C39.0836 3.37412 47.9053 6.67018 56.7201 9.98419C56.9705 10.0736 57.2099 10.1922 57.4335 10.3378C58.1898 10.8513 58.1898 11.482 57.4274 11.9713Z" fill="#FF0C63"/>
<path d="M47.8956 28.7685C47.9056 30.1359 47.2603 31.11 46.1587 31.7422C40.2691 35.1062 33.9286 36.5813 27.1946 36.2036C22.3537 35.9319 17.7791 34.6262 13.5988 32.0841C13.1441 31.8078 12.8785 31.1865 12.5731 30.6948C12.5126 30.5964 12.6397 30.3389 12.7315 30.1867C13.9203 28.2354 13.7994 26.0133 12.4047 24.1994C12.2976 24.0704 12.2319 23.9111 12.2164 23.7428C12.2018 22.3731 12.2079 21.0033 12.2079 19.5141C13.3906 19.9488 14.4906 20.3523 15.5899 20.7582C20.1476 22.4402 24.6991 24.1323 29.2691 25.7885C29.6611 25.9164 30.083 25.912 30.4724 25.7761C36.0804 23.7038 41.6799 21.5996 47.2756 19.5032C47.4501 19.4376 47.6262 19.3783 47.8879 19.2854V19.9637C47.8887 22.8983 47.8742 25.833 47.8956 28.7685Z" fill="#FF0C63"/>
</g>
<defs>
<clipPath id="clip0_197_7">
<rect width="58" height="44" fill="white"/>
</clipPath>
</defs>
</svg>
