<svg width="41" height="41" viewBox="0 0 41 41" fill="none" xmlns="http://www.w3.org/2000/svg">
<g clip-path="url(#clip0_199_28)">
<path d="M24.0463 16.967H16.953V32.618H24.0463V16.967Z" fill="#FF0C63"/>
<path d="M24.0463 10.9187C24.0463 8.95995 22.4584 7.37207 20.4997 7.37207C18.5409 7.37207 16.953 8.95995 16.953 10.9187C16.953 12.8774 18.5409 14.4653 20.4997 14.4653C22.4584 14.4653 24.0463 12.8774 24.0463 10.9187Z" fill="#FF0C63"/>
<path d="M20.5 3.99074C24.5759 3.99751 28.5041 5.51785 31.5226 8.25688C34.541 10.9959 36.4346 14.7584 36.8361 18.8145C37.2376 22.8707 36.1182 26.9313 33.6953 30.2089C31.2723 33.4865 27.7184 35.7474 23.7228 36.553C19.7273 37.3587 15.5749 36.6517 12.0712 34.5691C8.5674 32.4866 5.96197 29.1769 4.76023 25.2822C3.5585 21.3874 3.84612 17.1851 5.56731 13.4904C7.28849 9.79569 10.3206 6.87191 14.0754 5.28617C16.108 4.42658 18.2931 3.98598 20.5 3.99074V3.99074ZM20.5 -0.00134277C9.17778 -0.00134277 0 9.17645 0 20.498C0 31.8195 9.17778 40.998 20.5 40.998C31.8222 40.998 41 31.8202 41 20.498C41 9.17578 31.8215 -0.00134277 20.5 -0.00134277Z" fill="#FF0C63"/>
</g>
<defs>
<clipPath id="clip0_199_28">
<rect width="41" height="41" fill="white"/>
</clipPath>
</defs>
</svg>
