<svg width="33" height="33" viewBox="0 0 33 33" fill="none" xmlns="http://www.w3.org/2000/svg">
<rect width="33" height="33" rx="7" fill="#FF0C63"/>
<g clip-path="url(#clip0_121_2)">
<path d="M26.9961 18.6289C27.0059 17.8007 27.0158 17.0046 26.7897 16.2331C26.4358 15.0257 25.732 14.0654 24.5269 13.5108C23.5774 13.0731 22.559 12.9656 21.523 13.0826C19.7458 13.2825 18.4424 14.1334 17.7799 15.7652C17.3021 16.9443 17.2864 18.1724 17.5125 19.4062C17.6639 20.2306 17.9863 20.9833 18.635 21.5644C19.7556 22.568 21.1003 22.9717 22.616 22.9057C24.0767 22.8434 25.3172 22.351 26.2274 21.2116C26.538 20.8211 26.7917 20.4041 26.8506 19.8778C26.0092 19.8778 25.1835 19.874 24.3578 19.8835C24.2949 19.8854 24.2301 19.9721 24.175 20.0287C24 20.2098 23.8605 20.4362 23.654 20.5683C22.8775 21.0682 22.04 21.0342 21.2104 20.7154C20.3159 20.3721 19.8952 19.3967 19.9876 18.6289H26.9961ZM22.1914 15.0483C23.4398 15.0634 24.35 15.8708 24.3421 16.999H20.0387C20.1114 16.0086 20.8054 15.0295 22.1914 15.0483Z" fill="white"/>
<path d="M15.1278 16.0803C15.0983 16.0689 15.0727 16.0482 15.0334 16.0256C15.0727 15.9954 15.0963 15.9708 15.1258 15.9576C16.2031 15.4256 16.6455 14.5352 16.6455 13.4165C16.6474 12.1073 16.1245 11.0734 14.8545 10.4698C14.0878 10.1019 13.2582 10.0094 12.4187 10.0057C10.3585 9.99624 8.29817 10 6.23788 10C6.16317 10 6.08847 10.0094 6 10.0151V22.983C6.04522 22.9925 6.06094 23 6.07667 23C8.39646 22.9868 10.7143 22.9868 13.0321 22.9472C13.673 22.9359 14.3218 22.8227 14.9056 22.5284C16.3761 21.787 17.076 20.589 17.0701 19.0195C17.0662 17.6612 16.4882 16.6255 15.1278 16.0803ZM9.11992 12.2978C10.4233 12.2695 11.7169 12.1563 12.9928 12.4072C13.675 12.543 13.9895 13.0147 13.9522 13.7353C13.9148 14.4862 13.5138 14.9238 12.7097 15.054C12.405 15.103 12.0924 15.1181 11.7837 15.12C10.9069 15.1295 10.0282 15.1238 9.11992 15.1238V12.2978ZM14.2077 19.2477C14.1153 20.025 13.6553 20.5815 12.8493 20.6494C11.6186 20.7513 10.3781 20.7381 9.12385 20.7739V17.3008C9.18873 17.2933 9.23788 17.282 9.28899 17.282C10.3132 17.2839 11.3394 17.2763 12.3637 17.3008C12.6664 17.3084 12.981 17.3725 13.27 17.4687C13.8676 17.6668 14.1743 18.1007 14.2176 18.7025C14.2313 18.8836 14.2294 19.0685 14.2077 19.2477Z" fill="white"/>
<path d="M24.8788 10.5584H19.4626V11.8205H24.8788V10.5584Z" fill="white"/>
</g>
<defs>
<clipPath id="clip0_121_2">
<rect width="21" height="13" fill="white" transform="translate(6 10)"/>
</clipPath>
</defs>
</svg>
