<svg width="33" height="33" viewBox="0 0 33 33" fill="none" xmlns="http://www.w3.org/2000/svg">
<rect width="33" height="33" rx="7" fill="#FF0448"/>
<g clip-path="url(#clip0_121_3)">
<path d="M27.9755 11.8222C27.9396 9.32473 26.6655 7.53928 24.3032 6.47207C23.7582 6.22591 23.1709 6.09971 22.5689 6.03583C22.4988 6.0296 22.4303 6.01246 22.3617 6H11.6252C11.2957 6.05609 10.9596 6.08725 10.6382 6.17138C8.17634 6.82417 6.66889 8.34943 6.10931 10.7285C6.05873 10.9404 6.03589 11.1569 6 11.3719V21.625C6.05873 21.9397 6.09136 22.2622 6.17946 22.5675C6.86303 24.9154 8.45532 26.3612 10.9449 26.8863C11.3462 26.9704 11.7688 26.9907 12.1815 26.9922C15.3889 27 18.5947 27.0031 21.8005 26.9953C23.9475 26.9891 25.6621 26.1525 26.9086 24.4839C27.6427 23.4992 27.9837 22.379 27.9853 21.1716C27.9886 18.0556 28.0212 14.9381 27.9755 11.8222ZM26.0374 16.5023C26.0374 18.026 26.0357 19.5497 26.0374 21.0734C26.0374 21.9444 25.8204 22.7514 25.2804 23.4618C24.4288 24.5805 23.2672 25.132 21.825 25.1335C18.6045 25.1398 15.3857 25.1413 12.1652 25.1335C10.2858 25.1289 8.79466 24.1209 8.17308 22.4663C8.00504 22.0176 7.94957 21.5502 7.94957 21.0766C7.94794 18.0229 7.94631 14.9677 7.94957 11.9141C7.95284 10.1006 9.00349 8.64545 10.7622 8.08146C11.2141 7.93657 11.7149 7.87269 12.193 7.87113C15.3922 7.85244 18.5898 7.85867 21.7891 7.86179C23.6897 7.8649 25.1955 8.8698 25.8171 10.54C25.9868 10.9964 26.0357 11.4701 26.0374 11.9499C26.0374 13.4674 26.0374 14.9849 26.0374 16.5023Z" fill="white"/>
<path d="M16.9911 11.0868C13.8832 11.0915 11.3447 13.511 11.3267 16.4852C11.3104 19.45 13.8653 21.8992 16.9846 21.9101C20.0925 21.9194 22.6555 19.4765 22.6587 16.5008C22.6636 13.5313 20.1006 11.0837 16.9911 11.0868ZM16.9895 20.0421C14.9388 20.0374 13.2763 18.4451 13.2812 16.4945C13.2877 14.5362 14.9534 12.9486 16.9976 12.9548C19.0467 12.9595 20.7108 14.5517 20.7043 16.5023C20.6994 18.4592 19.032 20.0483 16.9895 20.0421Z" fill="white"/>
<path d="M24.3276 10.8952C24.3015 11.6648 23.6424 12.26 22.843 12.235C22.0763 12.2101 21.4449 11.5776 21.4661 10.8547C21.4889 10.0944 22.1448 9.49454 22.9279 9.51635C23.7142 9.53817 24.3505 10.1645 24.3276 10.8952Z" fill="white"/>
</g>
<defs>
<clipPath id="clip0_121_3">
<rect width="22" height="21" fill="white" transform="translate(6 6)"/>
</clipPath>
</defs>
</svg>
