<svg width="33" height="33" viewBox="0 0 33 33" fill="none" xmlns="http://www.w3.org/2000/svg">
<rect width="33" height="33" rx="7" fill="#FF0448"/>
<g clip-path="url(#clip0_121_7)">
<path d="M26 7.09408C26 7.0159 25.9803 7 25.9042 7C20.3777 7.00133 14.8486 7.00133 9.32088 7C9.25523 7 9.22635 7.01855 9.20271 7.08083C8.81669 8.1316 8.42673 9.18104 8.03414 10.2305C8.0105 10.2928 8 10.3524 8 10.4173C8 14.745 8 19.0713 8 23.3989C8 23.4877 8.01707 23.5155 8.11161 23.5142C9.5441 23.5102 10.9766 23.5115 12.4104 23.5115C12.4668 23.5115 12.5049 23.5076 12.5049 23.5897C12.501 24.3927 12.5023 25.1957 12.5023 25.9987H14.9616C14.9602 25.9775 14.9773 25.9695 14.9891 25.9576C15.7796 25.1586 16.5713 24.3609 17.3604 23.5606C17.4024 23.5182 17.4471 23.5115 17.5009 23.5115C18.6669 23.5115 19.8315 23.5115 20.9974 23.5142C21.0644 23.5142 21.1104 23.493 21.1563 23.4466C21.4281 23.1697 21.7025 22.8954 21.9756 22.6198C23.2965 21.2868 24.6174 19.9524 25.9396 18.6208C25.9816 18.5784 26.0013 18.5386 26.0013 18.4776C26 14.684 26 10.8904 26.0013 7.09673L26 7.09408ZM24.3587 17.6402C24.3587 17.7078 24.3377 17.7528 24.2918 17.8005C23.3806 18.7188 22.4706 19.6371 21.562 20.5567C21.5148 20.6044 21.4675 20.6216 21.4019 20.6216C19.9694 20.6203 18.5369 20.6216 17.1031 20.6189C17.0309 20.6189 16.9796 20.6375 16.9284 20.6905C16.1643 21.4657 15.3962 22.2382 14.6307 23.012C14.6084 23.0345 14.5939 23.0637 14.5755 23.0902C14.5663 23.0822 14.5572 23.0756 14.548 23.069V20.7395C14.548 20.66 14.5099 20.6203 14.4337 20.6203C13.277 20.6203 12.1202 20.6203 10.9635 20.6216C10.882 20.6216 10.8637 20.5991 10.8637 20.5196C10.865 16.5974 10.8663 12.6752 10.8637 8.75173C10.8637 8.66692 10.8899 8.65367 10.9661 8.65367C15.3949 8.655 19.8249 8.655 24.2537 8.65367C24.3351 8.65367 24.3601 8.66825 24.3601 8.75703C24.3574 11.7185 24.3574 14.6787 24.3601 17.6402H24.3587Z" fill="white"/>
<path d="M17.0019 16.8174C17.0019 16.8969 16.9808 16.9128 16.906 16.9128C16.4241 16.9088 15.9409 16.9101 15.4591 16.9128C15.3869 16.9128 15.3606 16.9022 15.3606 16.8187C15.3632 15.2299 15.3632 13.6412 15.3606 12.0538C15.3606 11.9729 15.3829 11.9584 15.4578 11.9584C15.9396 11.9623 16.4228 11.9623 16.9047 11.9584C16.9887 11.9584 17.0019 11.9862 17.0019 12.0617C16.9992 12.8554 17.0005 13.6505 17.0005 14.4442C17.0005 15.2379 17.0005 16.0276 17.0032 16.8187L17.0019 16.8174Z" fill="white"/>
<path d="M21.4991 16.8174C21.4991 16.8969 21.4781 16.9128 21.4032 16.9128C20.9187 16.9088 20.4329 16.9101 19.9471 16.9128C19.8815 16.9128 19.8591 16.9008 19.8591 16.828C19.8618 15.2339 19.8618 13.6399 19.8591 12.0458C19.8591 11.9756 19.8788 11.9597 19.9458 11.9597C20.4342 11.9623 20.9214 11.9623 21.4098 11.9597C21.4859 11.9597 21.4991 11.9835 21.4978 12.0538C21.4951 12.8515 21.4964 13.6478 21.4964 14.4455C21.4964 15.2432 21.4951 16.0276 21.4978 16.8187L21.4991 16.8174Z" fill="white"/>
</g>
<defs>
<clipPath id="clip0_121_7">
<rect width="18" height="19" fill="white" transform="translate(8 7)"/>
</clipPath>
</defs>
</svg>
