<svg width="33" height="33" viewBox="0 0 33 33" fill="none" xmlns="http://www.w3.org/2000/svg">
<rect width="33" height="33" rx="7" fill="#FF0C63"/>
<g clip-path="url(#clip0_121_5)">
<path d="M23.7583 11.0634C23.6179 10.9974 23.4816 10.924 23.3493 10.8457C22.9643 10.6134 22.6128 10.3395 22.2987 10.0301C21.5155 9.21084 21.2228 8.37933 21.1158 7.79605H21.1198C21.0303 7.31304 21.0677 7 21.0731 7H17.5057V19.6182C17.5057 19.7881 17.5057 19.9544 17.4977 20.1207C17.4977 20.1415 17.495 20.1599 17.4936 20.1819C17.4936 20.1904 17.4936 20.2002 17.491 20.21V20.2173C17.4148 21.1369 16.8441 21.9611 15.9672 22.4159C15.5181 22.6495 15.0089 22.773 14.4916 22.7718C12.8302 22.7718 11.4829 21.5319 11.4829 20.0009C11.4829 18.4699 12.8302 17.23 14.4916 17.23C14.8057 17.23 15.1185 17.2753 15.4179 17.3645L15.4219 14.0422C13.5868 13.8257 11.7356 14.321 10.3161 15.408C9.70126 15.8972 9.184 16.4792 8.78836 17.131C8.63733 17.3682 8.06927 18.3232 8.00111 19.8713C7.95833 20.7505 8.24704 21.6615 8.38337 22.0381V22.0454C8.47025 22.2668 8.80574 23.0237 9.35107 23.6608C9.79215 24.1719 10.3121 24.6219 10.8962 24.9949V24.9875L10.9042 24.9949C12.6311 26.0685 14.5451 25.9976 14.5451 25.9976C14.8766 25.9853 15.9873 25.9976 17.2477 25.451C18.6458 24.8444 19.4424 23.942 19.4424 23.942C19.9503 23.4028 20.3553 22.7877 20.6387 22.1237C20.9608 21.3472 21.069 20.4167 21.069 20.0449V13.3525C21.1118 13.3757 21.6892 13.7254 21.6892 13.7254C21.6892 13.7254 22.5193 14.2121 23.8144 14.5288C24.7434 14.7551 25.9958 14.8015 25.9958 14.8015V11.5623C25.5574 11.6063 24.6658 11.4791 23.7543 11.0634H23.7583Z" fill="white"/>
</g>
<defs>
<clipPath id="clip0_121_5">
<rect width="18" height="19" fill="white" transform="translate(8 7)"/>
</clipPath>
</defs>
</svg>
