<?xml version="1.0" encoding="UTF-8"?><svg id="Calque_2" xmlns="http://www.w3.org/2000/svg" viewBox="0 0 156.9 125.65"><defs><style>.cls-1{fill:#e62049;}</style></defs><g id="Calque_1-2"><path class="cls-1" d="M0,111.88C0,79.19,0,46.5,0,13.82c.08-.18,.19-.36,.22-.55C1.51,5.45,8.61-.03,17.04,0c40.95,.14,81.91,.06,122.87,.08,1.57,0,3.19,.08,4.71,.42,7.35,1.66,12.28,8.04,12.28,15.85,.01,30.33,0,60.67,0,91,0,1.12,.02,2.25-.03,3.37-.15,3.15-1.21,5.99-3.11,8.48-3.4,4.46-7.97,6.44-13.55,6.44-41.16-.02-82.32-.01-123.48-.01-.51,0-1.02,0-1.53-.03-4.74-.27-8.61-2.24-11.66-5.89C1.63,117.43,.66,114.73,0,111.88Zm94.05-17.52H15.76v15.46H94.05v-15.46Zm-31.21-15.99h78.3v-15.43H62.84v15.43Zm78.29,31.48v-15.52c-.29-.05-.48-.11-.68-.11-9.84,0-19.69,0-29.53-.03-1.05,0-1.12,.52-1.12,1.34,.02,4.28,.06,8.57-.02,12.85-.03,1.34,.47,1.58,1.68,1.58,9.38-.04,18.77-.02,28.15-.03,.5,0,.99-.05,1.52-.08ZM15.7,78.4h31.26v-15.42H15.7v15.42Z"/></g></svg>