<svg width="33" height="33" viewBox="0 0 33 33" fill="none" xmlns="http://www.w3.org/2000/svg">
<rect width="33" height="33" rx="7" fill="#FF0C63"/>
<g clip-path="url(#clip0_121_6)">
<path d="M11.973 24.0001H9.01143C9.00762 23.8885 9.00127 23.7769 9.00127 23.6665C9 18.5886 9 13.5108 9 8.4341C9 8.00506 9.00127 8.00506 9.42925 8.00506C10.1595 8.00506 10.891 8.01498 11.6212 8.0001C11.8803 7.9939 11.9591 8.0621 11.9578 8.32498C11.9502 13.4202 11.9514 18.5167 11.9527 23.6132C11.9527 23.7422 11.9667 23.8711 11.973 24.0001Z" fill="white"/>
<path d="M25.9999 13.9918C26.019 17.1737 23.4104 19.96 19.8812 19.9588C16.2515 19.9588 13.6938 17.0497 13.7497 13.8876C13.803 10.8644 16.2642 8.01488 19.8888 8.0186C23.4574 8.02108 26.0228 10.8409 25.9999 13.9918Z" fill="white"/>
</g>
<defs>
<clipPath id="clip0_121_6">
<rect width="17" height="16" fill="white" transform="translate(9 8)"/>
</clipPath>
</defs>
</svg>
