<svg width="33" height="33" viewBox="0 0 33 33" fill="none" xmlns="http://www.w3.org/2000/svg">
<rect width="33" height="33" rx="7" fill="#FF0448"/>
<g clip-path="url(#clip0_121_4)">
<path d="M6 16.3014C6 15.769 6 15.2365 6 14.7041C6.01399 14.5877 6.03499 14.47 6.03918 14.3537C6.08117 13.115 6.14834 11.8776 6.39323 10.6581C6.65352 9.36463 7.46657 8.5735 8.79041 8.36272C9.39635 8.26554 10.0107 8.19299 10.6236 8.16562C12.2959 8.09034 13.971 8 15.6447 8C17.9999 8 20.3551 8.05749 22.7089 8.12729C23.5569 8.15193 24.4077 8.24774 25.2488 8.37093C26.4802 8.55023 27.3087 9.31673 27.5648 10.513C27.7075 11.1823 27.7985 11.8653 27.8587 12.5456C27.9944 14.0608 28.0476 15.5814 27.9454 17.0994C27.8769 18.1246 27.7677 19.1484 27.6418 20.1681C27.5508 20.9045 27.2401 21.5464 26.6454 22.0405C26.094 22.499 25.4321 22.6674 24.7408 22.7167C23.256 22.8221 21.7713 22.9384 20.2837 22.9658C18.0936 23.0068 15.9008 23.0137 13.7121 22.9644C12.1336 22.9288 10.5551 22.7947 8.97933 22.6756C8.18727 22.6154 7.50995 22.2896 6.99218 21.6764C6.55276 21.1577 6.38204 20.5363 6.31487 19.893C6.20011 18.8007 6.13014 17.7044 6.03918 16.6094C6.03079 16.5067 6.01399 16.4041 6 16.3L6 16.3014ZM14.8106 12.2677V18.7391C16.7278 17.6564 18.6142 16.5902 20.5398 15.5034C18.6058 14.4112 16.7222 13.3477 14.8106 12.2691V12.2677Z" fill="white"/>
</g>
<defs>
<clipPath id="clip0_121_4">
<rect width="22" height="15" fill="white" transform="translate(6 8)"/>
</clipPath>
</defs>
</svg>
